<?xml version="1.0" encoding="UTF-8" standalone="no"?>
<!-- Created with Inkscape (http://www.inkscape.org/) -->

<svg
   width="210mm"
   height="60mm"
   viewBox="0 0 210 60"
   version="1.1"
   id="svg1"
   xmlns="http://www.w3.org/2000/svg"
   xmlns:svg="http://www.w3.org/2000/svg">
  <defs
     id="defs1" />
  <g
     id="layer1"
     style="display:inline">
    <path
       d="m 97.973328,272.00499 q 4.252612,3.71355 11.380242,6.10939 7.12762,2.39584 13.53649,2.39584 19.5261,0 19.5261,-13.89587 0,-3.89324 -2.09636,-7.00783 -2.09636,-3.1146 -5.75002,-5.51044 -3.65365,-2.39584 -13.71618,-7.3672 -13.95577,-6.94794 -18.38807,-12.87764 -4.432306,-5.9896 -4.432306,-13.65629 0,-11.55993 9.283876,-18.32817 9.28388,-6.76825 23.41934,-6.76825 13.83597,0 20.30474,3.35417 v 13.05733 q -8.38544,-5.80991 -21.20318,-5.80991 -8.50523,0 -13.89587,3.59376 -5.33075,3.53386 -5.33075,9.88284 0,5.63022 3.71356,9.16409 3.71355,3.53386 16.11202,9.64325 13.65629,6.52866 19.10682,13.05733 5.45054,6.52866 5.45054,14.67452 0,12.21878 -8.86461,18.74744 -8.86461,6.52867 -24.61726,6.52867 -5.51043,0 -12.87763,-1.5573 -7.30732,-1.4974 -10.661492,-3.77345 z m 85.351792,8.08596 v 39.83083 h -11.73961 v -96.73203 h 11.73961 v 11.44014 h 0.23958 q 7.78648,-12.99744 22.76048,-12.99744 12.69795,0 19.88547,8.92451 7.24742,8.86461 7.24742,23.8386 0,16.5313 -8.20575,26.59383 -8.14586,10.00263 -21.98183,10.00263 -12.75785,0 -19.70579,-10.90107 z m -0.0599,-17.9688 q 0,8.08596 5.21096,13.65628 5.21095,5.51044 13.05732,5.51044 9.34378,0 14.61463,-7.18752 5.27084,-7.18752 5.27084,-19.88547 0,-10.72139 -4.91147,-16.77088 -4.91147,-6.10939 -13.4167,-6.10939 -8.68492,0 -14.25525,6.16928 -5.57033,6.16929 -5.57033,15.81255 z m 62.23194,-5.09116 q 0,-16.4115 9.16409,-25.87507 9.16408,-9.52347 24.85683,-9.52347 14.91411,0 23.35944,9.16409 8.50523,9.10419 8.50523,25.21622 0,15.69275 -9.04429,25.336 -9.0443,9.64326 -24.25788,9.64326 -14.85421,0 -23.71881,-9.34378 -8.86461,-9.34377 -8.86461,-24.61725 z m 11.9792,-0.35938 q 0,11.44014 5.75001,18.0287 5.80991,6.58856 15.57296,6.58856 10.06253,0 15.33338,-6.40888 5.27084,-6.46876 5.27084,-18.50786 0,-12.09899 -5.27084,-18.56776 -5.27085,-6.46876 -15.33338,-6.46876 -9.88284,0 -15.63285,6.76824 -5.69012,6.76825 -5.69012,18.56776 z m 105.95602,-21.86204 q -2.93491,-2.09636 -8.08596,-2.09636 -6.82815,0 -11.26045,6.40888 -4.4323,6.34897 -4.4323,16.77087 v 33.54176 h -11.73962 v -66.24497 h 11.73962 v 13.4766 h 0.23958 q 5.03126,-14.61462 17.36984,-14.61462 4.01303,0 6.16929,0.89844 z m 46.95847,53.9663 q -3.83334,2.09636 -10.36201,2.09636 -17.78911,0 -17.78911,-19.70579 V 232.8929 h -11.38024 v -9.70315 h 11.38024 v -15.93233 l 11.67972,-3.71356 v 19.64589 h 16.4714 v 9.70315 h -16.4714 v 36.17718 q 0,6.52867 2.21615,9.34378 2.21616,2.81511 7.36721,2.81511 3.95314,0 6.88804,-2.21615 z"
       id="text46"
       style="font-size:122.667px;font-family:'Microsoft YaHei UI';-inkscape-font-specification:'Microsoft YaHei UI';white-space:pre;fill:#ffffff;stroke:#000000;stroke-width:3.77953;stroke-opacity:0"
       transform="matrix(0.26458333,0,0,0.26458333,-15.470418,-38.132895)"
       aria-label="Sport" />
    <path
       d="m 122.58449,31.767901 v 9.17568 H 119.415 V 16.395863 h 6.97288 q 3.97771,0 6.16466,1.917543 2.2028,1.917543 2.2028,5.483222 0,3.613221 -2.56729,5.86356 -2.56729,2.234492 -6.41822,2.107713 z m 0,-12.582885 v 9.793731 h 2.93178 q 2.90009,0 4.4056,-1.299491 1.5055,-1.31534 1.5055,-3.755849 0,-4.738391 -5.61,-4.738391 z m 25.68874,7.30568 q -0.77653,-0.554661 -2.13941,-0.554661 -1.80661,0 -2.97932,1.695678 -1.17272,1.679831 -1.17272,4.437289 v 8.874579 h -3.1061 V 23.416288 h 3.1061 v 3.565679 h 0.0634 q 1.33119,-3.86678 4.59577,-3.86678 1.06178,0 1.63229,0.237712 z m 16.81415,6.481612 h -12.26593 q 0.0792,2.805 1.5372,4.342204 1.45797,1.521356 4.0728,1.521356 2.94763,0 5.40398,-1.885848 v 2.773306 q -2.31373,1.632289 -6.13297,1.632289 -3.80339,0 -5.94279,-2.408814 -2.12356,-2.408815 -2.12356,-6.687629 0,-4.025255 2.32957,-6.640086 2.34543,-2.614832 5.81602,-2.614832 3.4389,0 5.37229,2.218645 1.93339,2.202797 1.93339,6.18051 z m -3.1061,-2.488052 q -0.0159,-2.377119 -1.12517,-3.676611 -1.10932,-1.299492 -3.12195,-1.299492 -1.85415,0 -3.21704,1.378729 -1.34703,1.37873 -1.69567,3.597374 z m 6.25975,6.671781 q 2.34542,1.695679 5.05534,1.695679 3.62907,0 3.62907,-2.377119 0,-1.014238 -0.79238,-1.663984 -0.79237,-0.665593 -3.21703,-1.568899 -2.91593,-1.172712 -3.78755,-2.313729 -0.87161,-1.156865 -0.87161,-2.789153 0,-2.329577 1.96509,-3.724154 1.98093,-1.410424 4.86517,-1.410424 2.23449,0 4.15204,0.776526 v 2.99517 q -1.96509,-1.267797 -4.45314,-1.267797 -1.48966,0 -2.42466,0.649746 -0.935,0.649746 -0.935,1.711526 0,1.045933 0.66559,1.632289 0.68144,0.586356 2.99517,1.505508 2.93178,1.093475 3.96187,2.266187 1.03008,1.172712 1.03008,2.900086 0,2.408814 -1.98093,3.80339 -1.96509,1.37873 -5.10288,1.37873 -2.72577,0 -4.75424,-1.030085 z m 15.02339,0 q 2.34542,1.695679 5.05534,1.695679 3.62907,0 3.62907,-2.377119 0,-1.014238 -0.79238,-1.663984 -0.79237,-0.665593 -3.21703,-1.568899 -2.91593,-1.172712 -3.78754,-2.313729 -0.87161,-1.156865 -0.87161,-2.789153 0,-2.329577 1.96508,-3.724154 1.98093,-1.410424 4.86517,-1.410424 2.23449,0 4.15204,0.776526 v 2.99517 q -1.96509,-1.267797 -4.45314,-1.267797 -1.48966,0 -2.42466,0.649746 -0.935,0.649746 -0.935,1.711526 0,1.045933 0.66559,1.632289 0.68144,0.586356 2.99517,1.505508 2.93178,1.093475 3.96187,2.266187 1.03008,1.172712 1.03008,2.900086 0,2.408814 -1.98093,3.80339 -1.96509,1.37873 -5.10288,1.37873 -2.72577,0 -4.75424,-1.030085 z"
       id="text47"
       style="font-size:32.4556px;font-family:'Microsoft YaHei UI';-inkscape-font-specification:'Microsoft YaHei UI';fill:#ffffff;stroke:#000000;stroke-opacity:0"
       aria-label="Press" />
    <path
       d="m 127.49479,5.512303 c -1.27619,0.0096 -2.54959,0.121046 -3.80804,0.333313 -0.34798,0.05846 -0.68906,0.138994 -1.03249,0.21239 -0.8795,0.183452 -1.74801,0.416192 -2.60139,0.697115 -0.54664,0.183044 -1.08667,0.382124 -1.61644,0.603064 -0.59129,0.247392 -1.17244,0.518396 -1.74201,0.812353 -5.38738,2.772071 -9.66232,7.546172 -11.72332,13.537158 -3.6e-4,0.001 -6.8e-4,0.0021 -0.001,0.0031 -0.0214,-0.06231 -0.0494,-0.120892 -0.0713,-0.182934 -0.60817,-1.722632 -1.39552,-3.345209 -2.34404,-4.844666 -0.0324,-0.05025 -0.0649,-0.100375 -0.0977,-0.150378 -0.29148,-0.453225 -0.59821,-0.894252 -0.91777,-1.324467 -0.043,-0.05894 -0.0862,-0.117676 -0.12971,-0.176217 -0.7075,-0.934512 -1.480254,-1.81224 -2.309939,-2.627747 -0.09045,-0.08649 -0.181576,-0.172281 -0.273369,-0.257348 -0.310854,-0.296124 -0.629151,-0.583264 -0.95498,-0.861963 C 97.728025,11.162798 97.583319,11.042209 97.43721,10.923341 97.149728,10.688918 96.855052,10.463557 96.55716,10.242762 96.391846,10.117787 96.224915,9.994957 96.056416,9.874309 95.747138,9.657233 95.428963,9.453423 95.109703,9.251091 94.747513,9.022855 94.379268,8.804355 94.005378,8.595834 93.794515,8.477488 93.585303,8.356452 93.370791,8.244435 93.059982,8.084622 92.745711,7.931622 92.428213,7.785548 92.276866,7.714748 92.125356,7.644462 91.972427,7.576775 91.611377,7.416892 91.246425,7.265949 90.87792,7.12409 90.8149,7.09985 90.751001,7.07753 90.687751,7.05381 88.008528,6.053489 85.171909,5.540524 82.312035,5.539173 78.461636,5.563023 74.673542,6.513814 71.268265,8.311097 h 0.02274 10.994678 c 11.71178,-1.42e-4 21.206597,9.494676 21.206457,21.206458 -1.5e-4,11.711579 -9.494879,21.206083 -21.206457,21.20594 v 0.0047 H 71.30134 71.27705 c 3.403006,1.79448 7.187904,2.743806 11.034985,2.76779 1.347642,-0.0041 2.692563,-0.12184 4.020426,-0.351916 0.141908,-0.02523 0.281048,-0.05909 0.422197,-0.08682 1.096677,-0.21336 2.17712,-0.503113 3.233394,-0.86713 0.386518,-0.134117 0.769232,-0.277243 1.147217,-0.430465 0.758061,-0.307403 1.499907,-0.653402 2.222603,-1.036629 0.871417,-0.461874 1.711096,-0.977997 2.517676,-1.542025 0.157883,-0.107678 0.314476,-0.217241 0.469739,-0.328662 3.864573,-2.84196 6.879833,-6.83873 8.500263,-11.597225 0.014,-0.04106 0.0322,-0.07975 0.046,-0.120923 0.0193,0.05766 0.0444,0.112057 0.0641,0.169499 1.14685,3.344182 2.99008,6.302588 5.32629,8.755021 0.28715,0.302544 0.58215,0.597546 0.8847,0.8847 0.56098,0.53057 1.14763,1.030879 1.75596,1.504301 0.70822,0.557797 1.44734,1.075213 2.21382,1.549777 0.29118,0.178084 0.59369,0.337139 0.89245,0.502811 0.97856,0.542641 1.9939,1.016122 3.03858,1.416968 0.13861,0.0532 0.27729,0.105912 0.41703,0.15658 2.57124,0.917537 5.28031,1.389234 8.01036,1.394747 3.82895,-0.02465 7.59633,-0.965923 10.98693,-2.745053 h -10.98486 -0.002 c -11.71079,-9.99e-4 -21.20424,-9.495145 -21.20439,-21.20594 -1.4e-4,-11.711022 9.49337,-21.205459 21.20439,-21.206458 h 0.002 11.20035 0.0331 C 135.31557,6.50017 131.51355,5.541554 127.64835,5.516998 h -0.045 c -0.034,-0.0015 -0.0679,-0.0033 -0.1018,-0.0046 z"
       style="opacity:1;vector-effect:none;fill:#ffffff;fill-opacity:1;fill-rule:evenodd;stroke:#000000;stroke-width:1.57257;stroke-opacity:0;stop-color:#000000;stop-opacity:1"
       id="path87" />
  </g>
</svg>
